<mxfile host="65bd71144e">
    <diagram id="ZXQX3BdwsWunF_BTcRhV" name="第 1 页">
        <mxGraphModel dx="1071" dy="654" grid="0" gridSize="10" guides="1" tooltips="1" connect="1" arrows="1" fold="1" page="0" pageScale="1" pageWidth="827" pageHeight="1169" math="0" shadow="0">
            <root>
                <mxCell id="0"/>
                <mxCell id="1" parent="0"/>
                <mxCell id="2" value="&lt;font style=&quot;font-size: 14px&quot;&gt;email&lt;/font&gt;" style="rounded=0;whiteSpace=wrap;html=1;fillColor=#1ba1e2;fontColor=#ffffff;strokeColor=#006EAF;" parent="1" vertex="1">
                    <mxGeometry x="40" y="80" width="80" height="40" as="geometry"/>
                </mxCell>
                <mxCell id="3" value="&lt;span style=&quot;font-size: 14px&quot;&gt;主键&lt;/span&gt;" style="rounded=0;whiteSpace=wrap;html=1;fillColor=#60a917;fontColor=#ffffff;strokeColor=#2D7600;" parent="1" vertex="1">
                    <mxGeometry x="40" y="160" width="80" height="40" as="geometry"/>
                </mxCell>
                <mxCell id="11" style="edgeStyle=none;html=1;entryX=0.5;entryY=0;entryDx=0;entryDy=0;fontSize=14;" parent="1" source="6" target="7" edge="1">
                    <mxGeometry relative="1" as="geometry"/>
                </mxCell>
                <mxCell id="12" style="edgeStyle=none;html=1;entryX=0.5;entryY=0;entryDx=0;entryDy=0;fontSize=14;" parent="1" source="6" target="9" edge="1">
                    <mxGeometry relative="1" as="geometry"/>
                </mxCell>
                <mxCell id="13" style="edgeStyle=none;html=1;fontSize=14;" parent="1" source="6" edge="1">
                    <mxGeometry relative="1" as="geometry">
                        <mxPoint x="380" y="160" as="targetPoint"/>
                    </mxGeometry>
                </mxCell>
                <mxCell id="6" value="&lt;font style=&quot;font-size: 14px&quot;&gt;index_email&lt;/font&gt;" style="rounded=0;whiteSpace=wrap;html=1;fillColor=#008a00;fontColor=#ffffff;strokeColor=#005700;" parent="1" vertex="1">
                    <mxGeometry x="320" y="40" width="120" height="60" as="geometry"/>
                </mxCell>
                <mxCell id="7" value="qwe@gamil.com" style="rounded=0;whiteSpace=wrap;html=1;fontSize=14;strokeColor=#006EAF;fillColor=#1ba1e2;fontColor=#ffffff;" parent="1" vertex="1">
                    <mxGeometry x="160" y="160" width="160" height="60" as="geometry"/>
                </mxCell>
                <mxCell id="8" value="1" style="rounded=0;whiteSpace=wrap;html=1;fontSize=14;strokeColor=#2D7600;fillColor=#60a917;fontColor=#ffffff;" parent="1" vertex="1">
                    <mxGeometry x="160" y="220" width="160" height="40" as="geometry"/>
                </mxCell>
                <mxCell id="9" value="yhnujm@firefox.com" style="rounded=0;whiteSpace=wrap;html=1;fontSize=14;strokeColor=#006EAF;fillColor=#1ba1e2;fontColor=#ffffff;" parent="1" vertex="1">
                    <mxGeometry x="440" y="160" width="160" height="60" as="geometry"/>
                </mxCell>
                <mxCell id="10" value="6" style="rounded=0;whiteSpace=wrap;html=1;fontSize=14;strokeColor=#2D7600;fillColor=#60a917;fontColor=#ffffff;" parent="1" vertex="1">
                    <mxGeometry x="440" y="220" width="160" height="40" as="geometry"/>
                </mxCell>
                <mxCell id="14" value="2、3、4、5" style="text;html=1;align=center;verticalAlign=middle;resizable=0;points=[];autosize=1;strokeColor=none;fillColor=none;fontSize=14;" parent="1" vertex="1">
                    <mxGeometry x="335" y="200" width="90" height="20" as="geometry"/>
                </mxCell>
            </root>
        </mxGraphModel>
    </diagram>
    <diagram id="CoRT46-2ns43OSvdAn4r" name="第 2 页">
        <mxGraphModel dx="1071" dy="654" grid="0" gridSize="10" guides="1" tooltips="1" connect="1" arrows="1" fold="1" page="0" pageScale="1" pageWidth="827" pageHeight="1169" math="0" shadow="0">
            <root>
                <mxCell id="MgBhlqQWdOBZEM3hETMw-0"/>
                <mxCell id="MgBhlqQWdOBZEM3hETMw-1" parent="MgBhlqQWdOBZEM3hETMw-0"/>
                <mxCell id="MgBhlqQWdOBZEM3hETMw-2" value="&lt;font style=&quot;font-size: 14px&quot;&gt;email&lt;/font&gt;" style="rounded=0;whiteSpace=wrap;html=1;fillColor=#1ba1e2;fontColor=#ffffff;strokeColor=#006EAF;" vertex="1" parent="MgBhlqQWdOBZEM3hETMw-1">
                    <mxGeometry x="40" y="80" width="80" height="40" as="geometry"/>
                </mxCell>
                <mxCell id="MgBhlqQWdOBZEM3hETMw-3" value="&lt;span style=&quot;font-size: 14px&quot;&gt;主键&lt;/span&gt;" style="rounded=0;whiteSpace=wrap;html=1;fillColor=#60a917;fontColor=#ffffff;strokeColor=#2D7600;" vertex="1" parent="MgBhlqQWdOBZEM3hETMw-1">
                    <mxGeometry x="40" y="160" width="80" height="40" as="geometry"/>
                </mxCell>
                <mxCell id="MgBhlqQWdOBZEM3hETMw-4" style="edgeStyle=none;html=1;entryX=0.5;entryY=0;entryDx=0;entryDy=0;fontSize=14;" edge="1" parent="MgBhlqQWdOBZEM3hETMw-1" source="MgBhlqQWdOBZEM3hETMw-7" target="MgBhlqQWdOBZEM3hETMw-8">
                    <mxGeometry relative="1" as="geometry"/>
                </mxCell>
                <mxCell id="MgBhlqQWdOBZEM3hETMw-5" style="edgeStyle=none;html=1;entryX=0.5;entryY=0;entryDx=0;entryDy=0;fontSize=14;" edge="1" parent="MgBhlqQWdOBZEM3hETMw-1" source="MgBhlqQWdOBZEM3hETMw-7" target="MgBhlqQWdOBZEM3hETMw-10">
                    <mxGeometry relative="1" as="geometry"/>
                </mxCell>
                <mxCell id="MgBhlqQWdOBZEM3hETMw-6" style="edgeStyle=none;html=1;fontSize=14;" edge="1" parent="MgBhlqQWdOBZEM3hETMw-1" source="MgBhlqQWdOBZEM3hETMw-7">
                    <mxGeometry relative="1" as="geometry">
                        <mxPoint x="380" y="160" as="targetPoint"/>
                    </mxGeometry>
                </mxCell>
                <mxCell id="MgBhlqQWdOBZEM3hETMw-7" value="&lt;font style=&quot;font-size: 14px&quot;&gt;index_email&lt;/font&gt;" style="rounded=0;whiteSpace=wrap;html=1;fillColor=#008a00;fontColor=#ffffff;strokeColor=#005700;" vertex="1" parent="MgBhlqQWdOBZEM3hETMw-1">
                    <mxGeometry x="320" y="40" width="120" height="60" as="geometry"/>
                </mxCell>
                <mxCell id="MgBhlqQWdOBZEM3hETMw-8" value="qwe@ga" style="rounded=0;whiteSpace=wrap;html=1;fontSize=14;strokeColor=#006EAF;fillColor=#1ba1e2;fontColor=#ffffff;" vertex="1" parent="MgBhlqQWdOBZEM3hETMw-1">
                    <mxGeometry x="160" y="160" width="160" height="60" as="geometry"/>
                </mxCell>
                <mxCell id="MgBhlqQWdOBZEM3hETMw-9" value="1" style="rounded=0;whiteSpace=wrap;html=1;fontSize=14;strokeColor=#2D7600;fillColor=#60a917;fontColor=#ffffff;" vertex="1" parent="MgBhlqQWdOBZEM3hETMw-1">
                    <mxGeometry x="160" y="220" width="160" height="40" as="geometry"/>
                </mxCell>
                <mxCell id="MgBhlqQWdOBZEM3hETMw-10" value="yhnujm" style="rounded=0;whiteSpace=wrap;html=1;fontSize=14;strokeColor=#006EAF;fillColor=#1ba1e2;fontColor=#ffffff;" vertex="1" parent="MgBhlqQWdOBZEM3hETMw-1">
                    <mxGeometry x="440" y="160" width="160" height="60" as="geometry"/>
                </mxCell>
                <mxCell id="MgBhlqQWdOBZEM3hETMw-11" value="6" style="rounded=0;whiteSpace=wrap;html=1;fontSize=14;strokeColor=#2D7600;fillColor=#60a917;fontColor=#ffffff;" vertex="1" parent="MgBhlqQWdOBZEM3hETMw-1">
                    <mxGeometry x="440" y="220" width="160" height="40" as="geometry"/>
                </mxCell>
                <mxCell id="MgBhlqQWdOBZEM3hETMw-12" value="2、3、4、5" style="text;html=1;align=center;verticalAlign=middle;resizable=0;points=[];autosize=1;strokeColor=none;fillColor=none;fontSize=14;" vertex="1" parent="MgBhlqQWdOBZEM3hETMw-1">
                    <mxGeometry x="335" y="200" width="90" height="20" as="geometry"/>
                </mxCell>
            </root>
        </mxGraphModel>
    </diagram>
</mxfile>